<?xml version="1.0" encoding="UTF-8" standalone="no"?>
<!-- Created with Inkscape (http://www.inkscape.org/) -->

<svg
   xmlns:dc="http://purl.org/dc/elements/1.1/"
   xmlns:cc="http://creativecommons.org/ns#"
   xmlns:rdf="http://www.w3.org/1999/02/22-rdf-syntax-ns#"
   xmlns:svg="http://www.w3.org/2000/svg"
   xmlns="http://www.w3.org/2000/svg"
   xmlns:sodipodi="http://sodipodi.sourceforge.net/DTD/sodipodi-0.dtd"
   xmlns:inkscape="http://www.inkscape.org/namespaces/inkscape"
   width="120"
   height="120"
   viewBox="0 0 120 120"
   version="1.1"
   id="svg5"
   inkscape:version="0.92.5 (2060ec1f9f, 2020-04-08)"
   sodipodi:docname="logo2.svg"
   inkscape:export-filename="/home/pl/logo.png"
   inkscape:export-xdpi="96"
   inkscape:export-ydpi="96">
  <metadata
     id="metadata856">
    <rdf:RDF>
      <cc:Work
         rdf:about="">
        <dc:format>image/svg+xml</dc:format>
        <dc:type
           rdf:resource="http://purl.org/dc/dcmitype/StillImage" />
        <dc:title></dc:title>
      </cc:Work>
    </rdf:RDF>
  </metadata>
  <sodipodi:namedview
     id="namedview7"
     pagecolor="#505050"
     bordercolor="#eeeeee"
     borderopacity="1"
     inkscape:pageshadow="0"
     inkscape:pageopacity="0"
     inkscape:pagecheckerboard="0"
     inkscape:document-units="px"
     showgrid="false"
     inkscape:zoom="4.0795532"
     inkscape:cx="61.526345"
     inkscape:cy="60.545846"
     inkscape:window-width="990"
     inkscape:window-height="958"
     inkscape:window-x="930"
     inkscape:window-y="27"
     inkscape:window-maximized="0"
     inkscape:current-layer="layer2" />
  <defs
     id="defs2">
    <rect
       x="87.250336"
       y="41.209991"
       width="61.995102"
       height="37.163666"
       id="rect856-9-7-0-9" />
    <rect
       x="87.250336"
       y="41.209991"
       width="61.995102"
       height="37.163666"
       id="rect2745" />
    <clipPath
       clipPathUnits="userSpaceOnUse"
       id="clipPath3382">
      <g
         inkscape:label="Clip"
         id="use3384"
         transform="scale(3.7795276)">
        <circle
           style="fill:#000814;fill-opacity:1;stroke:none;stroke-width:1;stroke-miterlimit:4;stroke-dasharray:none;stroke-opacity:1"
           id="circle101"
           cx="103.85154"
           cy="143.99513"
           inkscape:export-xdpi="96"
           inkscape:export-ydpi="96"
           r="49.865906"
           inkscape:export-filename="/home/pl/logo/black_largerfont.png" />
        <text
           xml:space="preserve"
           id="text113"
           style="font-style:normal;font-variant:normal;font-weight:normal;font-stretch:normal;font-size:17.6389px;line-height:1.25;font-family:Roboto;-inkscape-font-specification:Roboto;text-align:center;white-space:pre;shape-inside:url(#rect856-9-7-0-9);fill:#d4a373;fill-opacity:1"
           x="17.801065"
           y="0"
           transform="matrix(1.1884855,0,0,1.1884855,-36.68457,78.111779)"
           inkscape:export-xdpi="96"
           inkscape:export-ydpi="96"
           inkscape:export-filename="/home/pl/logo/black_largerfont.png"><tspan
             x="88.482402"
             y="57.422737"
             id="tspan1115"><tspan
               style="font-weight:300;font-family:Montserrat;-inkscape-font-specification:'Montserrat Light';fill:#ffffff"
               id="tspan1107">enc</tspan><tspan
               style="fill:#ffd60a"
               id="tspan1109">o</tspan><tspan
               style="font-weight:300;font-family:Montserrat;-inkscape-font-specification:'Montserrat Light';fill:#ffffff"
               id="tspan1111">re</tspan><tspan
               style="font-weight:300;font-family:Montserrat;-inkscape-font-specification:'Montserrat Light';text-anchor:middle;fill:#ffffff"
               id="tspan1113">
</tspan></tspan></text>
        <text
           xml:space="preserve"
           style="font-size:4.61199px;line-height:1.25;font-family:Montserrat;-inkscape-font-specification:Montserrat;stroke-width:0.431842"
           x="106.16625"
           y="155.8055"
           id="text117"
           inkscape:export-xdpi="96"
           inkscape:export-ydpi="96"
           inkscape:export-filename="/home/pl/logo/black_largerfont.png"><tspan
             sodipodi:role="line"
             id="tspan115"
             x="106.16625"
             y="155.8055"
             style="font-style:normal;font-variant:normal;font-weight:normal;font-stretch:normal;font-size:4.61199px;font-family:Montserrat;-inkscape-font-specification:Montserrat;fill:#ffffff;stroke-width:0.431842">home staging</tspan></text>
      </g>
    </clipPath>
    <rect
       x="87.250336"
       y="41.209991"
       width="61.995102"
       height="37.163666"
       id="rect856-9-7-0-9-8" />
  </defs>
  <g
     inkscape:groupmode="layer"
     id="layer2"
     inkscape:label="Layer 2"
     style="display:none">
    <rect
       style="fill:#ffffff;fill-opacity:1;fill-rule:evenodd"
       id="rect285"
       width="119.37582"
       height="119.62094"
       x="0.49024978"
       y="0.24512489" />
  </g>
  <g
     inkscape:label="Layer 1"
     inkscape:groupmode="layer"
     id="layer1">
    <g
       inkscape:label="Clip"
       id="g3378"
       transform="matrix(1.1493391,0,0,1.1493391,-59.146733,-106.06086)">
      <ellipse
         style="fill:#000814;fill-opacity:1;stroke:none;stroke-width:1;stroke-miterlimit:4;stroke-dasharray:none;stroke-opacity:1"
         id="path861-3-5-3-6"
         cx="103.85154"
         cy="143.99513"
         inkscape:export-xdpi="96"
         inkscape:export-ydpi="96"
         inkscape:export-filename="/home/pl/logo/black_largerfont.png"
         rx="49.866051"
         ry="49.865906" />
      <g
         aria-label="encore "
         transform="matrix(1.1884855,0,0,1.1884855,-36.68457,78.111779)"
         id="text854-2-3-0"
         style="font-size:17.6389px;line-height:1.25;font-family:Roboto;-inkscape-font-specification:Roboto;text-align:center;white-space:pre;shape-inside:url(#rect856-9-7-0-9-8);fill:#d4a373">
        <path
           d="m 94.091572,57.493292 q -1.393473,0 -2.469446,-0.599722 -1.058334,-0.599723 -1.675695,-1.658057 -0.599723,-1.058334 -0.599723,-2.416529 0,-1.375834 0.564445,-2.41653 0.582084,-1.058334 1.587501,-1.658056 1.005417,-0.599723 2.257779,-0.599723 1.252362,0 2.240141,0.582084 1.005417,0.582084 1.569862,1.640418 0.582083,1.040695 0.582083,2.416529 0,0.05292 -0.01764,0.123472 0,0.05292 0,0.123473 h -8.131534 v -0.687918 h 7.655283 l -0.352778,0.33514 q 0.01764,-1.075973 -0.458611,-1.922641 -0.458612,-0.864306 -1.252362,-1.340556 -0.793751,-0.493889 -1.834446,-0.493889 -1.023056,0 -1.834446,0.493889 -0.79375,0.47625 -1.252361,1.340556 -0.458612,0.846668 -0.458612,1.940279 v 0.158751 q 0,1.128889 0.493889,2.010834 0.511528,0.864306 1.393474,1.358196 0.881945,0.47625 2.010834,0.47625 0.881945,0 1.640418,-0.3175 0.776112,-0.3175 1.305279,-0.97014 l 0.511528,0.582084 q -0.599723,0.740834 -1.516946,1.12889 -0.899584,0.370416 -1.957918,0.370416 z"
           style="font-weight:300;font-family:Montserrat;-inkscape-font-specification:'Montserrat Light';fill:#ffffff"
           id="path847" />
        <path
           d="m 105.39204,48.144675 q 1.12889,0 1.95792,0.440973 0.84667,0.423333 1.30528,1.305278 0.47625,0.864306 0.47625,2.151946 v 5.379865 h -0.88194 v -5.309309 q 0,-1.552224 -0.79375,-2.363613 -0.77612,-0.811389 -2.18723,-0.811389 -1.07597,0 -1.86972,0.440972 -0.79375,0.440973 -1.21709,1.234723 -0.40569,0.793751 -0.40569,1.905001 v 4.903615 h -0.88195 v -9.207506 h 0.84667 v 2.55764 l -0.12347,-0.282222 q 0.42333,-1.093612 1.39347,-1.710973 0.97014,-0.635001 2.38125,-0.635001 z"
           style="font-weight:300;font-family:Montserrat;-inkscape-font-specification:'Montserrat Light';fill:#ffffff"
           id="path849" />
        <path
           d="m 116.43096,57.493292 q -1.34055,0 -2.39889,-0.599722 -1.04069,-0.599723 -1.65805,-1.658057 -0.59973,-1.058334 -0.59973,-2.416529 0,-1.375834 0.59973,-2.434169 0.61736,-1.058334 1.65805,-1.640417 1.05834,-0.599723 2.39889,-0.599723 1.11125,0 2.01084,0.423334 0.91722,0.423333 1.48167,1.270001 l -0.65264,0.47625 q -0.49389,-0.705556 -1.23473,-1.040695 -0.74083,-0.335139 -1.60514,-0.335139 -1.07597,0 -1.94028,0.493889 -0.84666,0.47625 -1.34055,1.358195 -0.47625,0.864306 -0.47625,2.028474 0,1.164167 0.47625,2.046112 0.49389,0.864306 1.34055,1.358196 0.86431,0.47625 1.94028,0.47625 0.86431,0 1.60514,-0.335139 0.74084,-0.335139 1.23473,-1.040695 l 0.65264,0.47625 q -0.56445,0.846667 -1.48167,1.270001 -0.89959,0.423333 -2.01084,0.423333 z"
           style="font-weight:300;font-family:Montserrat;-inkscape-font-specification:'Montserrat Light';fill:#ffffff"
           id="path851" />
        <path
           d="m 121.47782,52.677115 q 0,-1.369427 0.53399,-2.463245 0.54261,-1.093819 1.49862,-1.688098 0.96463,-0.59428 2.19625,-0.59428 1.90342,0 3.07475,1.31775 1.17995,1.31775 1.17995,3.505387 v 0.111966 q 0,1.360814 -0.52538,2.446019 -0.51676,1.076594 -1.49,1.679486 -0.96463,0.602892 -2.22209,0.602892 -1.89481,0 -3.07475,-1.31775 -1.17134,-1.31775 -1.17134,-3.488162 z m 1.60197,0.18948 q 0,1.550294 0.71486,2.489083 0.72347,0.938789 1.92926,0.938789 1.21439,0 1.92925,-0.947402 0.71486,-0.956014 0.71486,-2.66995 0,-1.533069 -0.73208,-2.480471 -0.72347,-0.956014 -1.92926,-0.956014 -1.17994,0 -1.90342,0.938789 -0.72347,0.938789 -0.72347,2.687176 z"
           style="fill:#ffd60a"
           id="path853" />
        <path
           d="m 132.62348,57.422737 v -9.207506 h 0.84666 v 2.522362 l -0.0882,-0.282222 q 0.38805,-1.111251 1.30528,-1.710973 0.91722,-0.599723 2.29305,-0.599723 v 0.864306 q -0.0529,0 -0.10583,0 -0.0529,-0.01764 -0.10583,-0.01764 -1.53459,0 -2.39889,0.97014 -0.86431,0.9525 -0.86431,2.663474 v 4.797781 z"
           style="font-weight:300;font-family:Montserrat;-inkscape-font-specification:'Montserrat Light';fill:#ffffff"
           id="path855" />
        <path
           d="m 143.08086,57.493292 q -1.39347,0 -2.46944,-0.599722 -1.05834,-0.599723 -1.6757,-1.658057 -0.59972,-1.058334 -0.59972,-2.416529 0,-1.375834 0.56444,-2.41653 0.58209,-1.058334 1.58751,-1.658056 1.00541,-0.599723 2.25778,-0.599723 1.25236,0 2.24014,0.582084 1.00541,0.582084 1.56986,1.640418 0.58208,1.040695 0.58208,2.416529 0,0.05292 -0.0176,0.123472 0,0.05292 0,0.123473 h -8.13153 v -0.687918 h 7.65528 l -0.35278,0.33514 q 0.0176,-1.075973 -0.45861,-1.922641 -0.45861,-0.864306 -1.25236,-1.340556 -0.79375,-0.493889 -1.83444,-0.493889 -1.02306,0 -1.83445,0.493889 -0.79375,0.47625 -1.25236,1.340556 -0.45861,0.846668 -0.45861,1.940279 v 0.158751 q 0,1.128889 0.49389,2.010834 0.51152,0.864306 1.39347,1.358196 0.88194,0.47625 2.01083,0.47625 0.88195,0 1.64042,-0.3175 0.77611,-0.3175 1.30528,-0.97014 l 0.51153,0.582084 q -0.59972,0.740834 -1.51695,1.12889 -0.89958,0.370416 -1.95792,0.370416 z"
           style="font-weight:300;font-family:Montserrat;-inkscape-font-specification:'Montserrat Light';fill:#ffffff"
           id="path857" />
      </g>
      <g
         aria-label="home staging"
         id="text872-8-3-6"
         style="font-size:4.61199px;line-height:1.25;font-family:Montserrat;-inkscape-font-specification:Montserrat;stroke-width:0.431842">
        <path
           d="m 107.85885,153.36114 q 0.29517,0 0.51655,0.1153 0.22598,0.11069 0.35051,0.34129 0.12913,0.2306 0.12913,0.58111 v 1.40666 h -0.32745 v -1.37438 q 0,-0.38279 -0.1937,-0.5765 -0.18909,-0.19831 -0.53499,-0.19831 -0.25827,0 -0.45198,0.10607 -0.18909,0.10147 -0.29517,0.29978 -0.10146,0.19371 -0.10146,0.47043 v 1.27291 h -0.32745 v -3.4221 h 0.32745 v 1.66493 l -0.0646,-0.12453 q 0.1153,-0.26288 0.36896,-0.41046 0.25366,-0.1522 0.60417,-0.1522 z"
           style="fill:#ffffff"
           id="path860" />
        <path
           d="m 110.7265,155.82856 q -0.35051,0 -0.63184,-0.15681 -0.27672,-0.16142 -0.43814,-0.43814 -0.16142,-0.28133 -0.16142,-0.64107 0,-0.36434 0.16142,-0.64106 0.16142,-0.27672 0.43814,-0.43353 0.27672,-0.15681 0.63184,-0.15681 0.35974,0 0.63646,0.15681 0.28133,0.15681 0.43814,0.43353 0.16141,0.27672 0.16141,0.64106 0,0.35974 -0.16141,0.64107 -0.15681,0.27672 -0.43814,0.43814 -0.28134,0.15681 -0.63646,0.15681 z m 0,-0.29056 q 0.26288,0 0.46581,-0.1153 0.20293,-0.11991 0.31823,-0.33206 0.11991,-0.21677 0.11991,-0.4981 0,-0.28594 -0.11991,-0.49809 -0.1153,-0.21215 -0.31823,-0.32745 -0.20293,-0.11992 -0.4612,-0.11992 -0.25827,0 -0.4612,0.11992 -0.20292,0.1153 -0.32283,0.32745 -0.11992,0.21215 -0.11992,0.49809 0,0.28133 0.11992,0.4981 0.11991,0.21215 0.32283,0.33206 0.20293,0.1153 0.45659,0.1153 z"
           style="fill:#ffffff"
           id="path862" />
        <path
           d="m 115.6565,153.36114 q 0.29517,0 0.51193,0.1153 0.22138,0.11069 0.34129,0.34129 0.12452,0.2306 0.12452,0.58111 v 1.40666 h -0.32745 v -1.37438 q 0,-0.38279 -0.18448,-0.5765 -0.17986,-0.19831 -0.51193,-0.19831 -0.24905,0 -0.43352,0.10607 -0.17987,0.10147 -0.28134,0.29978 -0.0969,0.19371 -0.0969,0.47043 v 1.27291 h -0.32745 v -1.37438 q 0,-0.38279 -0.18448,-0.5765 -0.18448,-0.19831 -0.51654,-0.19831 -0.24444,0 -0.42892,0.10607 -0.18448,0.10147 -0.28594,0.29978 -0.0969,0.19371 -0.0969,0.47043 v 1.27291 h -0.32745 v -2.4213 h 0.31361 v 0.6549 l -0.0507,-0.1153 q 0.11069,-0.26288 0.35512,-0.41046 0.24905,-0.1522 0.58573,-0.1522 0.35512,0 0.60417,0.17987 0.24904,0.17525 0.32284,0.53038 l -0.12914,-0.0507 q 0.10608,-0.29517 0.37357,-0.47504 0.27211,-0.18448 0.65029,-0.18448 z"
           style="fill:#ffffff"
           id="path864" />
        <path
           d="m 118.55074,155.82856 q -0.37818,0 -0.66412,-0.15681 -0.28595,-0.16142 -0.44737,-0.43814 -0.16142,-0.28133 -0.16142,-0.64107 0,-0.35973 0.1522,-0.63645 0.15681,-0.27672 0.4243,-0.43353 0.27211,-0.16142 0.60878,-0.16142 0.34129,0 0.60418,0.15681 0.26749,0.15219 0.41969,0.43353 0.15219,0.27672 0.15219,0.64106 0,0.0231 -0.005,0.0507 0,0.0231 0,0.0507 h -2.10768 v -0.24444 h 1.93242 l -0.12913,0.0969 q 0,-0.26288 -0.1153,-0.46581 -0.11069,-0.20754 -0.30439,-0.32284 -0.19371,-0.1153 -0.44737,-0.1153 -0.24904,0 -0.44736,0.1153 -0.19831,0.1153 -0.309,0.32284 -0.11069,0.20754 -0.11069,0.47504 v 0.0507 q 0,0.27672 0.11991,0.48887 0.12453,0.20754 0.34129,0.32745 0.22137,0.1153 0.50271,0.1153 0.22137,0 0.41046,-0.0784 0.19371,-0.0784 0.33207,-0.23983 l 0.18448,0.21216 q -0.16142,0.1937 -0.40586,0.29516 -0.23982,0.10147 -0.53038,0.10147 z"
           style="fill:#ffffff"
           id="path866" />
        <path
           d="m 122.16301,155.82856 q -0.29978,0 -0.56727,-0.083 -0.2675,-0.0876 -0.41969,-0.21676 l 0.14758,-0.25827 q 0.14758,0.11068 0.37818,0.1937 0.2306,0.0784 0.48426,0.0784 0.3459,0 0.4981,-0.10607 0.15219,-0.11069 0.15219,-0.29056 0,-0.13375 -0.0876,-0.20754 -0.083,-0.0784 -0.22137,-0.1153 -0.13836,-0.0415 -0.30901,-0.0692 -0.17064,-0.0277 -0.34128,-0.0646 -0.16603,-0.0369 -0.30439,-0.10607 -0.13836,-0.0738 -0.22599,-0.19832 -0.083,-0.12452 -0.083,-0.33206 0,-0.19832 0.11069,-0.35512 0.11069,-0.15681 0.32284,-0.24444 0.21676,-0.0922 0.52577,-0.0922 0.23521,0 0.47042,0.0646 0.23521,0.06 0.38741,0.16142 l -0.14297,0.26288 q -0.16142,-0.11069 -0.3459,-0.15681 -0.18448,-0.0507 -0.36896,-0.0507 -0.32745,0 -0.48426,0.1153 -0.1522,0.11069 -0.1522,0.28595 0,0.13836 0.083,0.21676 0.0876,0.0784 0.22599,0.12452 0.14297,0.0415 0.309,0.0692 0.17064,0.0277 0.33667,0.0692 0.17065,0.0369 0.30901,0.10608 0.14297,0.0646 0.22598,0.18909 0.0876,0.11991 0.0876,0.31823 0,0.21215 -0.11991,0.36896 -0.1153,0.15219 -0.34129,0.23982 -0.22137,0.083 -0.5396,0.083 z"
           style="fill:#ffffff"
           id="path868" />
        <path
           d="m 124.53026,155.82856 q -0.34129,0 -0.52577,-0.18448 -0.18448,-0.18448 -0.18448,-0.52116 v -2.27371 h 0.32745 v 2.25526 q 0,0.21216 0.10608,0.32746 0.11069,0.11529 0.31362,0.11529 0.21676,0 0.35973,-0.12452 l 0.1153,0.23521 q -0.0969,0.0876 -0.23521,0.12914 -0.13375,0.0415 -0.27672,0.0415 z m -1.14377,-2.17225 v -0.27211 h 1.49889 v 0.27211 z"
           style="fill:#ffffff"
           id="path870" />
        <path
           d="m 127.15564,155.8055 v -0.53499 l -0.0138,-0.0876 v -0.89473 q 0,-0.309 -0.17526,-0.47503 -0.17064,-0.16604 -0.51193,-0.16604 -0.23521,0 -0.44736,0.0784 -0.21215,0.0784 -0.35974,0.20754 l -0.14758,-0.24444 q 0.18448,-0.1568 0.44275,-0.23982 0.25827,-0.0876 0.54422,-0.0876 0.47042,0 0.72408,0.23521 0.25827,0.2306 0.25827,0.70564 v 1.50351 z m -0.83477,0.0231 q -0.27211,0 -0.47504,-0.0876 -0.19832,-0.0922 -0.30439,-0.24905 -0.10608,-0.16142 -0.10608,-0.36896 0,-0.18909 0.0876,-0.34129 0.0922,-0.1568 0.29517,-0.24904 0.20754,-0.0968 0.55344,-0.0968 h 0.83477 v 0.24443 h -0.82555 q -0.35051,0 -0.48887,0.12452 -0.13375,0.12453 -0.13375,0.30901 0,0.20754 0.16142,0.33206 0.16142,0.12452 0.45198,0.12452 0.27672,0 0.47503,-0.12452 0.20293,-0.12913 0.29517,-0.36896 l 0.0738,0.22599 q -0.0922,0.23982 -0.32284,0.38279 -0.22599,0.14298 -0.57188,0.14298 z"
           style="fill:#ffffff"
           id="path872" />
        <path
           d="m 129.39173,156.72328 q -0.33206,0 -0.63646,-0.0968 -0.30439,-0.0968 -0.49348,-0.27672 l 0.16603,-0.24905 q 0.17065,0.1522 0.41969,0.23983 0.25366,0.0922 0.53499,0.0922 0.4612,0 0.67797,-0.21677 0.21676,-0.21215 0.21676,-0.66412 v -0.60417 l 0.0461,-0.41508 -0.0323,-0.41508 v -0.73331 h 0.31361 v 2.12613 q 0,0.62723 -0.309,0.91778 -0.30439,0.29517 -0.90395,0.29517 z m -0.06,-1.01002 q -0.3459,0 -0.62262,-0.14759 -0.27672,-0.15219 -0.43814,-0.41969 -0.1568,-0.26749 -0.1568,-0.61339 0,-0.3459 0.1568,-0.60879 0.16142,-0.26749 0.43814,-0.41507 0.27672,-0.14759 0.62262,-0.14759 0.32284,0 0.58111,0.13375 0.25827,0.13375 0.41047,0.39663 0.1522,0.26288 0.1522,0.64107 0,0.37818 -0.1522,0.64106 -0.1522,0.26289 -0.41047,0.40125 -0.25827,0.13836 -0.58111,0.13836 z m 0.0323,-0.29056 q 0.26749,0 0.47503,-0.11069 0.20754,-0.1153 0.32745,-0.31361 0.11991,-0.20293 0.11991,-0.46581 0,-0.26289 -0.11991,-0.4612 -0.11991,-0.19832 -0.32745,-0.30901 -0.20754,-0.1153 -0.47503,-0.1153 -0.26289,0 -0.47504,0.1153 -0.20754,0.11069 -0.32745,0.30901 -0.1153,0.19831 -0.1153,0.4612 0,0.26288 0.1153,0.46581 0.11991,0.19831 0.32745,0.31361 0.21215,0.11069 0.47504,0.11069 z"
           style="fill:#ffffff"
           id="path874" />
        <path
           d="m 131.52038,155.8055 v -2.4213 h 0.32745 v 2.4213 z m 0.16603,-2.95629 q -0.10146,0 -0.17064,-0.0692 -0.0692,-0.0692 -0.0692,-0.16603 0,-0.0969 0.0692,-0.16142 0.0692,-0.0692 0.17064,-0.0692 0.10146,0 0.17064,0.0646 0.0692,0.0646 0.0692,0.16142 0,0.10146 -0.0692,0.17064 -0.0646,0.0692 -0.17064,0.0692 z"
           style="fill:#ffffff"
           id="path876" />
        <path
           d="m 133.99947,153.36114 q 0.29517,0 0.51654,0.1153 0.22599,0.11069 0.35051,0.34129 0.12914,0.2306 0.12914,0.58111 v 1.40666 h -0.32745 v -1.37438 q 0,-0.38279 -0.19371,-0.5765 -0.18909,-0.19831 -0.53499,-0.19831 -0.25827,0 -0.45197,0.10607 -0.18909,0.10147 -0.29517,0.29978 -0.10146,0.19371 -0.10146,0.47043 v 1.27291 h -0.32746 v -2.4213 h 0.31362 v 0.66413 l -0.0507,-0.12453 q 0.1153,-0.26288 0.36896,-0.41046 0.25366,-0.1522 0.60417,-0.1522 z"
           style="fill:#ffffff"
           id="path878" />
        <path
           d="m 136.91324,156.72328 q -0.33207,0 -0.63646,-0.0968 -0.30439,-0.0968 -0.49348,-0.27672 l 0.16603,-0.24905 q 0.17064,0.1522 0.41969,0.23983 0.25366,0.0922 0.53499,0.0922 0.4612,0 0.67796,-0.21677 0.21677,-0.21215 0.21677,-0.66412 v -0.60417 l 0.0461,-0.41508 -0.0323,-0.41508 v -0.73331 h 0.31362 v 2.12613 q 0,0.62723 -0.309,0.91778 -0.3044,0.29517 -0.90395,0.29517 z m -0.06,-1.01002 q -0.3459,0 -0.62262,-0.14759 -0.27672,-0.15219 -0.43814,-0.41969 -0.15681,-0.26749 -0.15681,-0.61339 0,-0.3459 0.15681,-0.60879 0.16142,-0.26749 0.43814,-0.41507 0.27672,-0.14759 0.62262,-0.14759 0.32284,0 0.58111,0.13375 0.25827,0.13375 0.41047,0.39663 0.15219,0.26288 0.15219,0.64107 0,0.37818 -0.15219,0.64106 -0.1522,0.26289 -0.41047,0.40125 -0.25827,0.13836 -0.58111,0.13836 z m 0.0323,-0.29056 q 0.2675,0 0.47504,-0.11069 0.20754,-0.1153 0.32745,-0.31361 0.11991,-0.20293 0.11991,-0.46581 0,-0.26289 -0.11991,-0.4612 -0.11991,-0.19832 -0.32745,-0.30901 -0.20754,-0.1153 -0.47504,-0.1153 -0.26288,0 -0.47503,0.1153 -0.20754,0.11069 -0.32745,0.30901 -0.1153,0.19831 -0.1153,0.4612 0,0.26288 0.1153,0.46581 0.11991,0.19831 0.32745,0.31361 0.21215,0.11069 0.47503,0.11069 z"
           style="fill:#ffffff"
           id="path880" />
      </g>
    </g>
  </g>
</svg>
